HIERARCHY
ROOT Hips
{
	OFFSET 0.00000 0.00000 0.00000
	CHANNELS 6 Xposition Yposition Zposition Zrotation Yrotation Xrotation 
	JOINT LHipJoint
	{
		OFFSET 0 0 0
		CHANNELS 3 Zrotation Yrotation Xrotation
		JOINT LeftUpLeg
		{
			OFFSET 1.26600 -1.82114 0.91038
			CHANNELS 3 Zrotation Yrotation Xrotation
			JOINT LeftLeg
			{
				OFFSET 2.50076 -6.87080 0.00000
				CHANNELS 3 Zrotation Yrotation Xrotation
				JOINT LeftFoot
				{
					OFFSET 2.57364 -7.07102 0.00000
					CHANNELS 3 Zrotation Yrotation Xrotation
					JOINT LeftToeBase
					{
						OFFSET 0.13572 -0.37290 1.97004
						CHANNELS 3 Zrotation Yrotation Xrotation
						End Site
						{
							OFFSET 0.00000 -0.00000 1.01383
						}
					}
				}
			}
		}
	}
	JOINT RHipJoint
	{
		OFFSET 0 0 0
		CHANNELS 3 Zrotation Yrotation Xrotation
		JOINT RightUpLeg
		{
			OFFSET -1.20803 -1.82114 0.91038
			CHANNELS 3 Zrotation Yrotation Xrotation
			JOINT RightLeg
			{
				OFFSET -2.54916 -7.00377 0.00000
				CHANNELS 3 Zrotation Yrotation Xrotation
				JOINT RightFoot
				{
					OFFSET -2.56374 -7.04382 0.00000
					CHANNELS 3 Zrotation Yrotation Xrotation
					JOINT RightToeBase
					{
						OFFSET -0.23520 -0.64621 2.09921
						CHANNELS 3 Zrotation Yrotation Xrotation
						End Site
						{
							OFFSET -0.00000 -0.00000 1.10065
						}
					}
				}
			}
		}
	}
	JOINT LowerBack
	{
		OFFSET 0 0 0
		CHANNELS 3 Zrotation Yrotation Xrotation
		JOINT Spine
		{
			OFFSET 0.05492 2.10797 -0.12074
			CHANNELS 3 Zrotation Yrotation Xrotation
			JOINT Spine1
			{
				OFFSET 0.04577 2.11592 -0.04483
				CHANNELS 3 Zrotation Yrotation Xrotation
				JOINT Neck
				{
					OFFSET 0 0 0
					CHANNELS 3 Zrotation Yrotation Xrotation
					JOINT Neck1
					{
						OFFSET -0.10759 1.80167 0.15770
						CHANNELS 3 Zrotation Yrotation Xrotation
						JOINT Head
						{
							OFFSET 0.09237 1.77509 -0.40848
							CHANNELS 3 Zrotation Yrotation Xrotation
							End Site
							{
								OFFSET 0.03805 1.84093 -0.15754
							}
						}
					}
				}
				JOINT LeftShoulder
				{
					OFFSET 0 0 0
					CHANNELS 3 Zrotation Yrotation Xrotation
					JOINT LeftArm
					{
						OFFSET 3.42372 1.09575 -0.28209
						CHANNELS 3 Zrotation Yrotation Xrotation
						JOINT LeftForeArm
						{
							OFFSET 4.95681 -0.00000 0.00000
							CHANNELS 3 Zrotation Yrotation Xrotation
							JOINT LeftHand
							{
								OFFSET 3.40915 -0.00000 0.00000
								CHANNELS 3 Zrotation Yrotation Xrotation
								JOINT LeftFingerBase
								{
									OFFSET 0 0 0
									CHANNELS 3 Zrotation Yrotation Xrotation
									JOINT LeftHandIndex1
									{
										OFFSET 0.61640 -0.00000 0.00000
										CHANNELS 3 Zrotation Yrotation Xrotation
										End Site
										{
											OFFSET 0.49696 -0.00000 0.00000
										}
									}
								}
								JOINT LThumb
								{
									OFFSET 0 0 0
									CHANNELS 3 Zrotation Yrotation Xrotation
									End Site
									{
										OFFSET 0.50455 -0.00000 0.50455
									}
								}
							}
						}
					}
				}
				JOINT RightShoulder
				{
					OFFSET 0 0 0
					CHANNELS 3 Zrotation Yrotation Xrotation
					JOINT RightArm
					{
						OFFSET -3.24731 1.15872 -0.32221
						CHANNELS 3 Zrotation Yrotation Xrotation
						JOINT RightForeArm
						{
							OFFSET -5.35200 -0.00000 0.00000
							CHANNELS 3 Zrotation Yrotation Xrotation
							JOINT RightHand
							{
								OFFSET -3.43721 -0.00000 -0.00000
								CHANNELS 3 Zrotation Yrotation Xrotation
								JOINT RightFingerBase
								{
									OFFSET 0 0 0
									CHANNELS 3 Zrotation Yrotation Xrotation
									JOINT RightHandIndex1
									{
										OFFSET -0.72009 -0.00000 0.00000
										CHANNELS 3 Zrotation Yrotation Xrotation
										End Site
										{
											OFFSET -0.58056 -0.00000 0.00000
										}
									}
								}
								JOINT RThumb
								{
									OFFSET 0 0 0
									CHANNELS 3 Zrotation Yrotation Xrotation
									End Site
									{
										OFFSET -0.58942 -0.00000 0.58942
									}
								}
							}
						}
					}
				}
			}
		}
	}
}
MOTION
Frames: 11
Frame Time: 0.027027
0.00 0.00 0.00 0 0 0 0 0 0 -21 0 0 0 0 0 0 0 0 0 0 0 0 0 0 21 0 0 0 0 0 0 0 0 0 0 0 0 0 0 0 0 0 0 0 0 0 0 -16 0 0 21 0 0 11 0 0 0 -8 0 0 0 0 0 0 0 0 0 0 0 0 0 0 0 0 0 0 0 0 8 0 0 0 0 0 0 0 0 0 0 0 0 0 0 0 0 0
0.00 0.00 0.00 -6.1694 -1.4207 3.2053 0.0000 0.0000 0.0000 -11.4959 -3.4282 -16.4490 5.1962 13.6014 41.6635 0.3812 -11.2938 -12.6613 0.0112 -0.6839 -1.8794 0.0000 0.0000 0.0000 31.2053 1.1526 -8.1830 -2.3473 -9.5549 27.5471 -1.2519 6.8122 -19.9945 -1.0086 -6.3902 17.9209 4.4104 -0.3707 2.7050 4.0949 -0.4489 2.5358 1.7463 -0.1967 1.0920 -7.4842 -0.8984 -14.9551 1.2908 0.5871 37.4423 1.9849 -0.6474 15.7565 0.0000 -0.0000 0.0000 -88.8659 0.9088 21.7290 17.3714 -27.3448 -4.2565 -0.0000 0.0000 -2.4309 19.5513 19.4013 6.7279 -7.1250 0.0000 -0.0000 -8.7285 50.2696 -1.1413 0.0000 -0.0000 0.0000 86.1534 2.5150 20.8353 -14.6661 23.6789 -3.0906 0.0000 -0.0000 -7.4044 -20.5757 11.7393 -4.3676 7.1250 -0.0000 -0.0000 4.6056 -17.4897 3.0183
0.00 0.00 0.00 -6.9925 -0.0654 2.0216 0.0000 0.0000 0.0000 -8.3474 -6.2053 -25.5274 9.4604 17.0950 57.6691 -0.3386 -10.7398 0.5201 0.0860 -1.8920 -5.2073 0.0000 0.0000 0.0000 32.4787 -2.1558 -5.0662 -1.6219 -8.0296 22.8039 -1.0056 6.4243 -17.8937 -0.7141 -5.4003 15.0540 5.7025 -0.0298 3.8377 4.1940 0.0893 3.1347 1.1220 0.0974 1.0849 -8.4590 -1.0967 -14.0913 2.5063 0.0820 37.4709 2.5943 -0.8147 15.5891 -0.0000 0.0000 0.0000 -88.8255 1.2603 22.4128 18.3972 -28.6627 -4.7382 -0.0000 0.0000 -3.1585 19.3473 21.8010 7.4295 -7.1250 0.0000 -0.0000 -9.7575 52.6923 -1.8613 -0.0000 0.0000 0.0000 86.0177 3.1852 17.4239 -13.0366 21.3409 -2.4666 0.0000 -0.0000 -4.1885 -19.8524 12.1058 -4.3301 7.1250 -0.0000 -0.0000 5.1200 -17.1658 3.3945
0.00 0.00 0.00 -9.0752 -1.0087 1.2793 0.0000 0.0000 0.0000 -5.3367 -8.7211 -32.1940 3.1511 10.9356 32.0632 0.2416 -4.4993 -8.8187 0.3098 -3.5785 -9.8937 0.0000 0.0000 0.0000 35.1588 -4.4863 4.9828 -0.5010 -4.5376 12.5941 -0.7674 4.7509 -15.6312 -0.3423 -3.7596 10.4013 8.2947 1.3793 3.9403 4.2864 2.0011 3.6206 -0.2506 1.1200 1.6805 -8.4412 -1.0886 -14.1983 1.9071 0.3892 37.1580 2.3830 -0.7378 15.4481 -0.0000 0.0000 0.0000 -90.2770 3.1118 15.4501 12.8466 -21.0620 -2.3979 -0.0000 -0.0000 1.4560 19.7535 18.9913 6.6654 -7.1250 0.0000 -0.0000 -8.4052 49.8795 -1.0175 -0.0000 0.0000 0.0000 85.2814 2.1494 19.1115 -13.3962 21.8650 -2.5990 0.0000 -0.0000 -6.3768 -20.0180 11.4392 -4.1328 7.1250 -0.0000 -0.0000 4.9887 -17.8539 3.2312
0.00 0.00 0.00 -7.1002 -5.1212 2.1637 0.0000 0.0000 0.0000 -10.1829 -3.2863 -25.0721 1.5913 7.9573 22.5844 -0.3738 -11.5851 -0.3240 0.0177 -0.8600 -2.3637 0.0000 0.0000 0.0000 30.1863 -2.8543 10.0149 -2.2027 -9.2762 26.6631 -0.1513 0.0492 -7.3295 -0.0048 0.4469 -1.2279 6.1405 1.9723 2.1338 2.8167 2.7089 1.6737 -0.5747 1.3929 0.6769 -7.8444 -0.1949 -14.3954 1.6451 1.6375 36.9131 2.3649 -0.1717 15.2855 -0.0000 -0.0000 0.0000 -90.2254 5.2274 14.4561 12.0334 -19.8547 -2.1136 -0.0000 -0.0000 3.4151 17.9718 19.8806 6.2947 -7.1250 0.0000 -0.0000 -10.4206 50.5041 -1.4269 -0.0000 -0.0000 0.0000 87.7377 -0.3986 16.9340 -13.2248 21.6157 -2.5355 0.0000 -0.0000 -5.6716 -19.0922 11.1660 -3.8347 7.1250 -0.0000 -0.0000 5.6338 -18.2148 3.6080
0.00 0.00 0.00 -4.6733 -5.9239 1.4397 0.0000 0.0000 0.0000 -14.3865 -1.0653 -20.6705 1.2231 7.0146 19.7586 -0.4303 -11.9674 0.9906 0.1015 2.0543 5.6558 0.0000 0.0000 0.0000 25.6413 -3.3442 1.9477 -5.2717 -13.6834 41.9836 -0.0267 -2.5964 3.1954 -0.1961 -2.8513 7.8651 3.8408 1.8568 2.8083 2.0977 2.5715 1.4519 -0.0676 1.2968 -0.0101 -7.8773 0.1866 -14.4204 1.1493 2.3983 36.6390 2.2782 0.0829 15.1248 0.0000 0.0000 0.0000 -88.8320 4.5969 18.7084 14.4454 -23.3678 -3.0025 -0.0000 0.0000 -0.1624 18.5594 19.9892 6.5474 -7.1250 0.0000 -0.0000 -9.8867 50.7103 -1.4030 0.0000 0.0000 0.0000 87.4788 -0.4906 20.1681 -14.2013 23.0218 -2.9064 0.0000 -0.0000 -6.8515 -19.4654 12.3047 -4.3075 7.1250 -0.0000 -0.0000 5.3940 -16.9902 3.5985
0.00 0.00 0.00 -2.2437 -6.6065 0.3239 0.0000 0.0000 0.0000 -18.2226 0.9696 -14.8972 0.7632 5.5789 15.5674 -0.4113 -11.5612 1.5503 0.1981 2.8660 7.9058 0.0000 0.0000 0.0000 21.4886 -3.2634 -8.6502 -9.7542 -17.2693 58.6638 0.1285 -6.4101 -3.3242 -0.2563 -3.2573 8.9959 0.8315 1.3407 3.6537 1.6965 1.8162 1.9762 1.2063 0.9052 -0.0499 -6.9727 1.2215 -14.8710 -0.3125 4.2386 36.4090 1.8081 0.7816 15.0885 -0.0000 -0.0000 0.0000 -87.3866 1.2461 18.8326 17.3166 -27.2732 -4.2314 -0.0000 0.0000 -2.7643 19.3103 20.1537 6.8838 -7.1250 0.0000 -0.0000 -9.2085 51.0023 -1.3717 -0.0000 -0.0000 0.0000 87.2739 2.4556 22.1075 -15.4820 24.8133 -3.4257 0.0000 -0.0000 -8.2756 -18.4481 9.1809 -3.0467 7.1250 -0.0000 -0.0000 6.0800 -20.3365 3.6081
0.00 0.00 0.00 -10.9069 74.1874 -8.6740 0.0000 0.0000 0.0000 -19.6120 2.6627 -17.0380 2.5317 9.8953 28.6384 0.3993 -8.5706 -11.9270 0.9096 6.0775 17.0094 0.0000 0.0000 0.0000 23.9872 -13.8760 -12.8949 -2.8198 -10.3974 30.2735 -1.2746 -11.2182 -28.0524 -0.6755 -5.2556 14.6389 3.6192 1.6616 3.7387 3.0287 2.3907 2.4287 1.0044 1.2439 0.4181 -7.2258 -0.9484 -14.2397 -0.3274 2.2193 35.9770 1.6137 0.3275 14.8494 0.0000 -0.0000 0.0000 -88.9617 2.9647 12.4325 13.2950 -21.7179 -2.5614 -0.0000 -0.0000 0.4668 22.5248 19.9206 8.0428 -7.1250 0.0000 -0.0000 -5.9610 51.3059 -0.9287 0.0000 -0.0000 0.0000 81.6947 -2.2583 18.3026 -15.5550 24.9136 -3.4564 0.0000 -0.0000 -13.8926 -21.4658 9.9768 -3.8973 7.1250 -0.0000 -0.0000 3.9330 -19.2895 2.4187
0.00 0.00 0.00 -26.0430 84.0247 -26.0386 0.0000 0.0000 0.0000 -20.2488 0.2176 -19.9125 1.4375 7.5803 21.4463 -0.2059 -9.6614 -2.2202 0.3615 -3.8624 -10.6898 0.0000 0.0000 0.0000 19.6524 -3.5280 -1.0779 -7.6066 -15.8221 51.1328 -1.0743 -2.6661 18.8814 -1.1840 -6.9054 19.4355 0.9242 1.6638 5.5024 1.6349 2.3340 2.8646 1.0300 1.1930 -0.1693 -7.0436 -0.9161 -14.7292 1.6679 1.5879 35.6677 2.3147 0.3886 14.7875 -0.0000 -0.0000 0.0000 -89.4082 4.0088 14.5567 12.8099 -21.0081 -2.3847 -0.0000 -0.0000 2.4982 19.1654 19.7934 6.7125 -7.1250 0.0000 -0.0000 -9.2305 50.6093 -1.2854 -0.0000 -0.0000 0.0000 87.4872 -2.7045 24.5207 -17.8036 27.9050 -4.4570 0.0000 -0.0000 -12.2255 -18.9199 11.0175 -3.7478 7.1250 -0.0000 -0.0000 5.7532 -18.3835 3.6637
0.00 0.00 0.00 162.8770 85.3648 163.6800 0.0000 0.0000 0.0000 -22.5966 -0.5597 6.2165 3.0873 10.8351 31.7257 0.0045 -8.5736 12.3060 0.3187 3.6289 10.0348 0.0000 0.0000 0.0000 18.1809 3.0103 -26.6558 -2.3521 -9.5638 27.5756 0.0439 6.4983 -3.3106 -0.8230 -5.7881 16.1709 -0.3182 -1.2284 5.3198 2.7583 -1.5505 2.0456 3.1068 -0.7573 -0.7918 -8.0870 -1.3738 -15.5574 0.9224 1.4820 34.9873 2.1590 0.1006 14.6931 0.0000 0.0000 0.0000 -88.9810 4.2937 23.7663 15.5381 -24.8903 -3.4492 -0.0000 -0.0000 1.3054 16.8105 21.1356 6.2171 -7.1250 0.0000 -0.0000 -12.0110 51.5780 -1.9696 0.0000 0.0000 0.0000 86.0455 -4.3484 11.5845 -13.2098 21.5938 -2.5300 0.0000 -0.0000 -12.3436 -20.7881 11.1258 -4.1897 7.1250 -0.0000 -0.0000 4.4404 -18.1216 2.8476
0.00 0.00 0.00 200.1200 84.7274 200.2380 0.0000 0.0000 0.0000 -17.4517 -2.4389 -2.1813 6.5101 14.9051 46.9963 0.8816 -8.6416 22.8790 0.2536 3.2401 8.9480 0.0000 0.0000 0.0000 22.8487 1.2322 -22.0305 -1.8592 -8.5665 24.4484 0.0517 6.3064 -2.8699 -1.3149 -7.2631 20.4973 2.8215 -0.9605 5.8648 3.7037 -0.9473 2.0160 2.2938 -0.4290 -1.1960 -8.1361 -1.8420 -15.2919 0.8541 0.8917 35.4615 2.0551 -0.1551 14.8954 0.0000 0.0000 0.0000 -88.5318 5.9145 25.3346 15.0684 -24.2413 -3.2540 -0.0000 -0.0000 2.4961 17.1066 20.6404 6.1917 -7.1250 0.0000 -0.0000 -11.5338 51.1304 -1.7618 0.0000 0.0000 0.0000 85.8385 -4.4148 11.7874 -12.7153 20.8687 -2.3509 0.0000 -0.0000 -10.5080 -19.6074 12.5734 -4.4343 7.1250 -0.0000 -0.0000 5.3020 -16.6959 3.5707
